<svg width="12" height="12" viewBox="0 0 12 12" fill="none" xmlns="http://www.w3.org/2000/svg">
<g clip-path="url(#clip0_12_700)">
<path d="M3 1H6V6H1V3C1 1.89543 1.89543 1 3 1Z" stroke="#212121" stroke-width="0.7"/>
<path d="M4.5 2.5L2.5 4.5" stroke="#212121" stroke-width="0.333333" stroke-linecap="round" stroke-linejoin="round"/>
<path d="M2.5 2.5L4.5 4.5" stroke="#212121" stroke-width="0.333333" stroke-linecap="round" stroke-linejoin="round"/>
<path d="M9 1H6V6H11V3C11 1.89543 10.1046 1 9 1Z" stroke="#212121" stroke-width="0.7"/>
<path d="M9.91421 3.49999H7.08579" stroke="#212121" stroke-width="0.333333" stroke-linecap="round" stroke-linejoin="round"/>
<path d="M8.5 4.91421V2.08578" stroke="#212121" stroke-width="0.333333" stroke-linecap="round" stroke-linejoin="round"/>
<path d="M3 11H6V6H1V9C1 10.1046 1.89543 11 3 11Z" stroke="#212121" stroke-width="0.7"/>
<path d="M4.91421 8.5H2.08579" stroke="#212121" stroke-width="0.333333" stroke-linecap="round" stroke-linejoin="round"/>
<path d="M3 9.5C3 9.22386 3.22386 9 3.5 9C3.77614 9 4 9.22386 4 9.5C4 9.77614 3.77614 10 3.5 10C3.22386 10 3 9.77614 3 9.5Z" fill="#212121"/>
<path d="M3 7.5C3 7.77614 3.22386 8 3.5 8C3.77614 8 4 7.77614 4 7.5C4 7.22386 3.77614 7 3.5 7C3.22386 7 3 7.22386 3 7.5Z" fill="#212121"/>
<path d="M9 11H6V6H11V9C11 10.1046 10.1046 11 9 11Z" stroke="#212121" stroke-width="0.7"/>
<path d="M9.91421 8.50001H7.08579" stroke="#212121" stroke-width="0.333333" stroke-linecap="round" stroke-linejoin="round"/>
</g>
<defs>
<clipPath id="clip0_12_700">
<rect width="12" height="12" fill="white"/>
</clipPath>
</defs>
</svg>
